<svg width="294" height="294" viewBox="0 0 294 294" fill="none" xmlns="http://www.w3.org/2000/svg">
<circle cx="147" cy="147" r="147" fill="#2D98DA"/>
<path d="M139.344 151C131.365 151 125.52 149.144 121.808 145.432C118.096 141.72 116.24 135.875 116.24 127.896V113.56C116.24 105.581 118.096 99.7573 121.808 96.088C125.52 92.376 131.365 90.52 139.344 90.52H166.16V65.56C166.16 63.3413 167.291 62.232 169.552 62.232C171.771 62.232 172.88 63.3413 172.88 65.56V147.608C172.88 149.869 171.771 151 169.552 151C167.291 151 166.16 149.869 166.16 147.608V142.104C164.325 145.048 161.637 147.267 158.096 148.76C154.555 150.253 149.925 151 144.208 151H139.344ZM139.344 144.28H144.208C150.864 144.28 156.176 143.235 160.144 141.144C164.155 139.011 166.16 135.832 166.16 131.608V97.24H139.344C133.243 97.24 128.976 98.456 126.544 100.888C124.155 103.277 122.96 107.501 122.96 113.56V127.896C122.96 133.997 124.155 138.264 126.544 140.696C128.976 143.085 133.243 144.28 139.344 144.28ZM217.094 151C209.115 151 203.27 149.165 199.558 145.496C195.846 141.784 193.99 135.96 193.99 128.024V113.56C193.99 105.496 195.846 99.6293 199.558 95.96C203.27 92.248 209.115 90.4347 217.094 90.52H227.59C235.569 90.52 241.393 92.376 245.062 96.088C248.774 99.7573 250.63 105.581 250.63 113.56V127.896C250.63 135.875 248.774 141.72 245.062 145.432C241.393 149.144 235.569 151 227.59 151H217.094ZM200.71 128.024C200.71 134.04 201.905 138.264 204.294 140.696C206.726 143.085 210.993 144.28 217.094 144.28H227.59C233.691 144.28 237.937 143.085 240.326 140.696C242.715 138.264 243.91 133.997 243.91 127.896V113.56C243.91 107.459 242.715 103.213 240.326 100.824C237.937 98.4347 233.691 97.24 227.59 97.24H217.094C212.998 97.1973 209.755 97.688 207.366 98.712C204.977 99.736 203.27 101.443 202.246 103.832C201.222 106.221 200.71 109.464 200.71 113.56V128.024Z" fill="white"/>
<path d="M50.4 228C48.28 228 47.22 226.94 47.22 224.82V153.84C47.22 151.72 48.28 150.66 50.4 150.66C52.48 150.66 53.52 151.72 53.52 153.84V221.7H90C92.12 221.7 93.18 222.74 93.18 224.82C93.18 226.94 92.12 228 90 228H50.4ZM109.02 160.38C106.26 160.38 104.88 158.96 104.88 156.12V153.42C104.88 150.66 106.26 149.28 109.02 149.28H111.72C114.4 149.28 115.74 150.66 115.74 153.42V156.12C115.74 158.96 114.4 160.38 111.72 160.38H109.02ZM110.4 228C108.28 228 107.22 226.94 107.22 224.82V174.42C107.22 172.34 108.28 171.3 110.4 171.3C112.48 171.3 113.52 172.34 113.52 174.42V224.82C113.52 226.94 112.48 228 110.4 228ZM148.351 227.88C143.431 227.88 139.671 226.84 137.071 224.76C134.471 222.64 132.911 219.42 132.391 215.1C132.271 214.06 132.491 213.26 133.051 212.7C133.611 212.1 134.431 211.8 135.511 211.8C136.511 211.8 137.251 212.06 137.731 212.58C138.251 213.1 138.591 213.88 138.751 214.92C139.111 217.4 140.011 219.14 141.451 220.14C142.931 221.1 145.231 221.58 148.351 221.58H168.031C171.751 221.58 174.311 220.88 175.711 219.48C177.111 218.08 177.811 215.52 177.811 211.8C177.811 208.04 177.111 205.46 175.711 204.06C174.311 202.66 171.751 201.96 168.031 201.96H148.591C143.391 201.96 139.511 200.72 136.951 198.24C134.431 195.72 133.171 191.86 133.171 186.66C133.171 181.34 134.431 177.44 136.951 174.96C139.471 172.44 143.351 171.18 148.591 171.18H167.431C176.471 171.18 181.491 175.18 182.491 183.18C182.651 184.22 182.431 185.04 181.831 185.64C181.271 186.2 180.471 186.48 179.431 186.48C178.431 186.48 177.671 186.22 177.151 185.7C176.671 185.18 176.331 184.42 176.131 183.42C175.851 181.18 175.031 179.64 173.671 178.8C172.351 177.92 170.271 177.48 167.431 177.48H148.591C145.111 177.48 142.711 178.12 141.391 179.4C140.111 180.68 139.471 183.1 139.471 186.66C139.471 190.06 140.131 192.42 141.451 193.74C142.771 195.02 145.151 195.66 148.591 195.66H168.031C173.551 195.66 177.611 196.98 180.211 199.62C182.811 202.22 184.111 206.28 184.111 211.8C184.111 217.28 182.811 221.34 180.211 223.98C177.611 226.58 173.551 227.88 168.031 227.88H148.351ZM226.122 228C218.762 228 213.382 226.3 209.982 222.9C206.582 219.5 204.882 214.14 204.882 206.82V177.6H197.742C195.622 177.6 194.562 176.54 194.562 174.42C194.562 172.34 195.622 171.3 197.742 171.3H204.882V158.4C204.882 156.28 205.922 155.22 208.002 155.22C210.122 155.22 211.182 156.28 211.182 158.4V171.3H226.242C228.322 171.3 229.362 172.34 229.362 174.42C229.362 176.54 228.322 177.6 226.242 177.6H211.182V206.82C211.182 212.42 212.262 216.3 214.422 218.46C216.622 220.62 220.522 221.7 226.122 221.7C227.282 221.7 228.102 221.96 228.582 222.48C229.102 223 229.362 223.78 229.362 224.82C229.362 226.94 228.282 228 226.122 228Z" fill="white"/>
<path d="M83.352 151.064C82.328 151.064 81.496 150.765 80.856 150.168C80.2587 149.571 79.96 148.76 79.96 147.736V75.16H52.76C51.736 75.16 50.904 74.8613 50.264 74.264C49.6667 73.6667 49.368 72.856 49.368 71.832C49.368 70.808 49.6667 69.9973 50.264 69.4C50.904 68.76 51.736 68.44 52.76 68.44H113.944C114.968 68.44 115.779 68.76 116.376 69.4C116.973 69.9973 117.272 70.808 117.272 71.832C117.272 72.856 116.973 73.6667 116.376 74.264C115.779 74.8613 114.968 75.16 113.944 75.16H86.68V147.736C86.68 148.717 86.36 149.528 85.72 150.168C85.1227 150.765 84.3333 151.064 83.352 151.064ZM138.844 151C130.865 151 125.02 149.165 121.308 145.496C117.596 141.784 115.74 135.96 115.74 128.024V113.56C115.74 105.496 117.596 99.6293 121.308 95.96C125.02 92.248 130.865 90.4347 138.844 90.52H149.34C157.319 90.52 163.143 92.376 166.812 96.088C170.524 99.7573 172.38 105.581 172.38 113.56V127.896C172.38 135.875 170.524 141.72 166.812 145.432C163.143 149.144 157.319 151 149.34 151H138.844ZM122.46 128.024C122.46 134.04 123.655 138.264 126.044 140.696C128.476 143.085 132.743 144.28 138.844 144.28H149.34C155.441 144.28 159.687 143.085 162.076 140.696C164.465 138.264 165.66 133.997 165.66 127.896V113.56C165.66 107.459 164.465 103.213 162.076 100.824C159.687 98.4347 155.441 97.24 149.34 97.24H138.844C134.748 97.1973 131.505 97.688 129.116 98.712C126.727 99.736 125.02 101.443 123.996 103.832C122.972 106.221 122.46 109.464 122.46 113.56V128.024Z" fill="white"/>
</svg>
